<svg width="172" height="21" viewBox="0 0 172 21" fill="none" xmlns="http://www.w3.org/2000/svg">
<path d="M139.638 18.5534C139.615 18.3924 139.594 18.237 139.578 18.0833C139.561 17.9266 139.552 17.7691 139.552 17.6115C139.553 17.4502 139.562 17.289 139.578 17.1285C139.594 16.9627 139.615 16.8009 139.638 16.6407C139.798 16.6181 139.954 16.6012 140.106 16.59C140.258 16.5779 140.415 16.5731 140.574 16.5731C140.732 16.5731 140.894 16.5779 141.049 16.59C141.204 16.602 141.369 16.6181 141.529 16.6407C141.552 16.8017 141.572 16.9627 141.589 17.1237C141.622 17.4424 141.622 17.7638 141.589 18.0825C141.572 18.2435 141.552 18.4029 141.529 18.5607C141.369 18.5832 141.214 18.6001 141.062 18.6122C140.91 18.6242 140.752 18.6291 140.594 18.6291C140.435 18.6291 140.274 18.6234 140.114 18.6122C139.954 18.6009 139.796 18.5759 139.638 18.5534Z" fill="white"/>
<path d="M148.601 12.7744C148.63 12.5171 148.599 12.2564 148.511 12.0131C148.423 11.7698 148.279 11.5504 148.092 11.3724C147.654 11.0823 147.134 10.9442 146.611 10.9792C146.238 10.9776 145.865 11.0091 145.498 11.0733C145.156 11.1351 144.818 11.2178 144.486 11.321C144.262 10.9075 144.151 10.4416 144.166 9.97115C144.582 9.83857 145.008 9.74147 145.441 9.68091C145.886 9.6139 146.335 9.57951 146.785 9.57802C147.712 9.51265 148.631 9.78936 149.37 10.3562C149.688 10.6812 149.932 11.0719 150.084 11.5012C150.237 11.9304 150.295 12.3879 150.254 12.842V18.3296C149.858 18.4207 149.375 18.5142 148.808 18.6101C148.235 18.7077 147.655 18.7567 147.074 18.7564C146.568 18.7621 146.063 18.7107 145.569 18.6029C145.159 18.5176 144.771 18.3485 144.429 18.106C144.12 17.8812 143.872 17.5814 143.709 17.2346C143.528 16.8325 143.441 16.3942 143.454 15.9531C143.441 15.521 143.536 15.0925 143.729 14.7061C143.922 14.3198 144.207 13.9878 144.56 13.7399C144.915 13.4881 145.312 13.3026 145.732 13.1924C146.187 13.0718 146.656 13.0118 147.127 13.014C147.49 13.014 147.788 13.0212 148.019 13.0381C148.25 13.055 148.448 13.0751 148.606 13.0984L148.601 12.7744ZM148.601 14.4321C148.432 14.4086 148.216 14.3858 147.954 14.3638C147.694 14.3405 147.474 14.3292 147.292 14.3292C146.729 14.2926 146.168 14.4298 145.684 14.7223C145.499 14.8588 145.351 15.04 145.255 15.2491C145.158 15.4583 145.116 15.6886 145.132 15.9186C145.117 16.199 145.182 16.478 145.319 16.7225C145.435 16.9076 145.596 17.0602 145.786 17.1663C145.979 17.2704 146.191 17.3346 146.409 17.3552C146.635 17.3769 146.85 17.3882 147.055 17.3882C147.325 17.3882 147.594 17.3737 147.862 17.3448C148.112 17.3219 148.359 17.2794 148.602 17.2177L148.601 14.4321Z" fill="white"/>
<path d="M152.632 16.9613C153.304 17.2289 154.019 17.3679 154.742 17.3713C154.993 17.3725 155.244 17.3439 155.49 17.2861C155.709 17.2368 155.919 17.1501 156.11 17.0296C156.279 16.9216 156.424 16.7786 156.535 16.61C156.642 16.4452 156.698 16.2521 156.695 16.0553C156.702 15.8597 156.658 15.6656 156.567 15.4925C156.482 15.3446 156.366 15.2164 156.228 15.1163C156.074 15.0084 155.908 14.9196 155.734 14.8518C155.546 14.7778 155.345 14.7071 155.13 14.6387L154.534 14.4161C153.948 14.2257 153.408 13.911 152.953 13.4932C152.783 13.3067 152.653 13.0883 152.568 12.8507C152.483 12.6131 152.446 12.3609 152.459 12.1088C152.445 11.7575 152.512 11.4075 152.655 11.0866C152.798 10.7657 153.013 10.4827 153.284 10.2598C153.989 9.75692 154.846 9.51538 155.708 9.57641C156.145 9.57627 156.581 9.61908 157.01 9.70424C157.388 9.77722 157.76 9.87717 158.124 10.0033C158.1 10.2345 158.057 10.4633 157.996 10.6875C157.937 10.9042 157.86 11.1155 157.766 11.3194C157.473 11.2154 157.176 11.1271 156.874 11.0548C156.509 10.9674 156.135 10.9245 155.759 10.927C155.376 10.9199 154.996 10.9956 154.645 11.1489C154.493 11.2134 154.366 11.3237 154.28 11.4645C154.194 11.6053 154.154 11.7695 154.165 11.9344C154.159 12.1078 154.2 12.2795 154.284 12.4312C154.364 12.57 154.473 12.6896 154.604 12.7817C154.749 12.8833 154.906 12.9668 155.072 13.0301C155.246 13.0976 155.438 13.166 155.642 13.2351L156.39 13.4915C156.655 13.5788 156.914 13.6863 157.163 13.8131C157.399 13.932 157.612 14.0908 157.794 14.2826C157.975 14.4824 158.119 14.714 158.218 14.966C158.423 15.4889 158.454 16.0646 158.308 16.607C158.161 17.1495 157.843 17.6296 157.402 17.9758C157.063 18.2334 156.679 18.4271 156.271 18.5474C155.796 18.6892 155.303 18.7586 154.808 18.7533C154.329 18.7582 153.851 18.7211 153.379 18.6423C152.992 18.5733 152.611 18.4733 152.239 18.3433C152.263 18.1081 152.312 17.8761 152.384 17.6511C152.459 17.4203 152.542 17.1864 152.632 16.9613Z" fill="white"/>
<path d="M161.034 11.116H159.932C159.907 11.0124 159.89 10.907 159.882 10.8008C159.869 10.6841 159.864 10.5669 159.864 10.4495C159.863 10.3327 159.869 10.216 159.882 10.0998C159.89 9.99333 159.907 9.88769 159.932 9.78385H162.686V18.5515C162.562 18.5741 162.423 18.5909 162.27 18.603C162.118 18.615 161.978 18.6198 161.853 18.6198C161.727 18.6198 161.607 18.6142 161.453 18.603C161.298 18.5917 161.16 18.5741 161.035 18.5515L161.034 11.116ZM160.661 7.8512C160.637 7.70436 160.623 7.55613 160.618 7.40743C160.612 7.24665 160.609 7.10405 160.61 6.97971C160.61 6.8551 160.61 6.71283 160.618 6.55365C160.622 6.4105 160.636 6.26784 160.661 6.12675C160.809 6.10344 160.967 6.08656 161.141 6.0745C161.314 6.06244 161.461 6.05762 161.582 6.05762C161.704 6.05762 161.854 6.06405 162.025 6.0745C162.195 6.08495 162.345 6.10344 162.483 6.12675C162.508 6.26777 162.523 6.41047 162.526 6.55365C162.532 6.71443 162.535 6.8551 162.535 6.97971C162.535 7.10432 162.535 7.24825 162.526 7.40743C162.522 7.55616 162.508 7.70443 162.483 7.8512C162.347 7.87452 162.198 7.89057 162.033 7.90263C161.868 7.91469 161.724 7.91951 161.598 7.91951C161.473 7.91951 161.309 7.91388 161.14 7.90263C160.971 7.89137 160.812 7.87452 160.661 7.8512Z" fill="white"/>
<path d="M170.03 12.7745C170.06 12.5171 170.029 12.2564 169.941 12.013C169.853 11.7696 169.709 11.5503 169.522 11.3724C169.084 11.0825 168.564 10.9444 168.042 10.9793C167.668 10.9777 167.295 11.0092 166.927 11.0733C166.585 11.1352 166.247 11.2179 165.914 11.321C165.691 10.9073 165.581 10.4416 165.594 9.97117C166.011 9.83859 166.437 9.74149 166.87 9.68093C167.314 9.61391 167.764 9.57953 168.214 9.57803C169.141 9.51284 170.06 9.78952 170.799 10.3563C171.116 10.6818 171.359 11.0727 171.511 11.5019C171.663 11.9311 171.72 12.3883 171.679 12.842V18.3296C171.282 18.4207 170.8 18.5142 170.233 18.6102C169.66 18.7078 169.08 18.7567 168.498 18.7565C167.993 18.7621 167.488 18.7106 166.994 18.6029C166.584 18.5178 166.196 18.3487 165.854 18.1061C165.544 17.8812 165.297 17.5814 165.134 17.2346C164.953 16.8325 164.866 16.3943 164.878 15.9532C164.866 15.5211 164.96 15.0926 165.153 14.7063C165.346 14.3199 165.632 13.9879 165.984 13.74C166.339 13.4877 166.737 13.3021 167.158 13.1925C167.613 13.0717 168.082 13.0117 168.553 13.014C168.915 13.014 169.212 13.0213 169.445 13.0382C169.678 13.055 169.873 13.0751 170.03 13.0985V12.7745ZM170.03 14.4322C169.862 14.4089 169.646 14.3863 169.385 14.3638C169.124 14.3413 168.905 14.3292 168.722 14.3292C168.158 14.2926 167.597 14.4298 167.114 14.7224C166.929 14.8588 166.781 15.04 166.685 15.2492C166.588 15.4583 166.546 15.6886 166.562 15.9186C166.546 16.1991 166.611 16.478 166.749 16.7226C166.865 16.9076 167.026 17.0603 167.216 17.1663C167.409 17.2704 167.62 17.3347 167.838 17.3552C168.065 17.377 168.28 17.3882 168.484 17.3882C168.754 17.3883 169.024 17.3738 169.292 17.3448C169.541 17.322 169.788 17.2795 170.031 17.2178L170.03 14.4322Z" fill="white"/>
<path d="M6.4096 19.8852L3.31201 13.1852L10.0232 10.0499L6.4096 19.8852Z" fill="#1A1A1A"/>
<path d="M0.192017 6.4411L3.31201 13.186L10.0232 10.0507L0.192017 6.4411Z" fill="#4C4C4C"/>
<path d="M19.7888 13.6371L16.6912 6.93628L10.0232 10.0507L19.7888 13.6371Z" fill="#A11924"/>
<path d="M13.5936 0.23938L16.6912 6.93694L10.0232 10.0513L13.5936 0.23938Z" fill="#CE0D1D"/>
<path d="M0.192017 6.44107L6.9032 3.30573L10.0232 10.0531L0.192017 6.44107Z" fill="#ECB100"/>
<path d="M13.5936 0.23938L6.92639 3.35138L10.0232 10.0522L13.5936 0.23938Z" fill="#FFDC00"/>
<path d="M6.43201 19.8748L13.1224 16.7507L10.0224 10.0516L6.43201 19.8748Z" fill="#F88113"/>
<path d="M19.7784 13.6145L13.1128 16.729L10.0248 10.0524L19.7784 13.6145Z" fill="#FF9F15"/>
<path d="M0 14.7304L3.4488 13.1225L4.98801 16.4476L0 14.7304Z" fill="#1A1A1A"/>
<path d="M0 14.7296L1.89999 9.77014L3.44958 13.1201L0 14.7296Z" fill="#4C4C4C"/>
<path d="M18.1592 10.2983L16.6208 6.96999L19.9808 5.40393L18.1592 10.2983Z" fill="#A11924"/>
<path d="M16.6208 6.96923L15.084 3.64337L19.9776 5.40157L16.6208 6.96923Z" fill="#CE0D1D"/>
<path d="M14.6696 20.1007L13.0024 16.4951L16.2904 14.9595L14.6696 20.1007Z" fill="#FF9F15"/>
<path d="M9.64401 18.0619L13.004 16.4942L14.6712 20.0998L9.64401 18.0619Z" fill="#F88113"/>
<path d="M7.00239 3.51154L5.37839 0L10.2888 1.97763L7.00239 3.51154Z" fill="#FFDC00"/>
<path d="M3.62241 5.03252L5.3824 0.00244141L6.98239 3.46567L3.62241 5.03252Z" fill="#ECB100"/>
<path d="M29.8104 8.78596H27.7744C27.7277 8.54688 27.6946 8.30528 27.6752 8.06241C27.6581 7.84803 27.6496 7.6235 27.6496 7.38875C27.6496 7.17169 27.6584 6.96426 27.6752 6.76328C27.6949 6.53746 27.728 6.31303 27.7744 6.0912H29.8104V5.46656C29.7982 4.73924 29.9197 4.01587 30.1688 3.33289C30.3908 2.73768 30.7436 2.20049 31.2008 1.76124C31.6608 1.32828 32.2058 0.996673 32.8008 0.78768C33.4594 0.556924 34.1529 0.442941 34.8504 0.450828C35.2688 0.446724 35.6872 0.467366 36.1032 0.512703C36.4778 0.56198 36.848 0.640763 37.2104 0.748278C37.1831 1.24598 37.1296 1.74186 37.0504 2.23391C36.9737 2.68185 36.8531 3.12109 36.6904 3.54516C36.508 3.51139 36.3173 3.47361 36.1184 3.43181C35.856 3.38455 35.5896 3.3638 35.3232 3.36988C34.8195 3.34791 34.3226 3.49281 33.9088 3.7823C33.6906 4.01597 33.5245 4.29378 33.4217 4.59712C33.319 4.90047 33.2818 5.22236 33.3128 5.54129V6.09041H36.2936C36.3396 6.32959 36.3724 6.57111 36.392 6.81392C36.408 7.03018 36.4176 7.25531 36.4176 7.48684C36.4176 7.7031 36.408 7.91208 36.392 8.11226C36.3721 8.33827 36.3392 8.56297 36.2936 8.78518H33.3128V18.9911C32.7387 19.0891 32.1575 19.1394 31.5752 19.1414C30.9854 19.1399 30.3968 19.0897 29.8152 18.9911L29.8104 8.78596Z" fill="white"/>
<path d="M42.996 19.2798C42.0639 19.3013 41.1376 19.1275 40.276 18.7694C39.5379 18.4514 38.8839 17.9644 38.3664 17.3472C37.8494 16.7185 37.461 15.9934 37.2232 15.2136C36.9603 14.3574 36.8303 13.4655 36.8376 12.5695C36.8312 11.6651 36.9612 10.7649 37.2232 9.89965C37.4563 9.11059 37.8451 8.37675 38.3664 7.74189C38.885 7.12227 39.5383 6.63075 40.276 6.30528C41.1352 5.93775 42.0625 5.75876 42.996 5.7803C43.9328 5.75951 44.8634 5.93844 45.7264 6.30528C46.472 6.63079 47.1345 7.12197 47.664 7.74189C48.19 8.37336 48.5788 9.10833 48.8056 9.89965C49.0584 10.7666 49.1837 11.6661 49.1776 12.5695C49.1847 13.4645 49.0593 14.3556 48.8056 15.2136C48.5741 15.9957 48.1856 16.7219 47.664 17.3472C47.1355 17.9647 46.4725 18.4514 45.7264 18.7694C44.861 19.1267 43.9314 19.3005 42.996 19.2798ZM42.996 16.5859C43.3923 16.6176 43.7896 16.5374 44.143 16.3543C44.4964 16.1712 44.7918 15.8925 44.996 15.5497C45.3978 14.6076 45.6051 13.5933 45.6051 12.5683C45.6051 11.5433 45.3978 10.529 44.996 9.58694C44.7716 9.26727 44.4741 9.00641 44.1285 8.82638C43.7829 8.64636 43.3993 8.55239 43.01 8.55239C42.6207 8.55239 42.2371 8.64636 41.8915 8.82638C41.5459 9.00641 41.2484 9.26727 41.024 9.58694C40.6227 10.5292 40.4159 11.5434 40.4159 12.5683C40.4159 13.5932 40.6227 14.6074 41.024 15.5497C41.2243 15.8896 41.5149 16.1667 41.8633 16.3497C42.2117 16.5328 42.6039 16.6146 42.996 16.5859Z" fill="white"/>
<path d="M50.74 6.08174C51.907 5.88141 53.0994 5.88141 54.2664 6.08174V12.9152C54.2542 13.4809 54.3079 14.0462 54.4264 14.5994C54.5075 14.9823 54.6778 15.3405 54.9232 15.6445C55.1445 15.9006 55.4319 16.0904 55.7536 16.1928C56.1323 16.3068 56.5263 16.361 56.9216 16.3536C57.4401 16.3649 57.9578 16.3062 58.4608 16.1791V6.08174C59.0351 5.98333 59.6166 5.93304 60.1992 5.9314C60.789 5.93251 61.3777 5.9828 61.9592 6.08174V18.4824C61.2715 18.7059 60.5704 18.885 59.86 19.0186C58.9642 19.1959 58.053 19.2837 57.14 19.2807C56.3244 19.2829 55.5101 19.2162 54.7056 19.0813C53.9662 18.9635 53.2646 18.6733 52.6568 18.234C52.026 17.7417 51.5409 17.0856 51.2536 16.3367C50.8675 15.2749 50.6903 14.1478 50.732 13.0181L50.74 6.08174Z" fill="white"/>
<path d="M64.1728 6.08179C64.4224 6.03034 64.6528 5.99415 64.8816 5.96923C65.1104 5.94431 65.5704 5.93145 65.8328 5.93145C66.0787 5.93134 66.3243 5.94801 66.568 5.9813C66.808 6.01506 67.2768 6.05606 67.5096 6.1051C67.5576 6.19031 67.4296 7.81103 67.452 7.9268C67.826 7.39954 68.2782 6.93294 68.7928 6.54323C69.3674 6.12082 70.0669 5.90531 70.7784 5.93145C70.9448 5.93145 71.1352 5.94028 71.3504 5.95475C71.5099 5.96278 71.6681 5.98786 71.8224 6.02953C71.8572 6.21996 71.8821 6.4121 71.8968 6.60515C71.9128 6.82221 71.9224 7.04652 71.9224 7.27885C71.9224 7.55943 71.9096 7.86812 71.8832 8.20256C71.8606 8.5208 71.8154 8.83702 71.748 9.14879C71.547 9.11549 71.3437 9.09911 71.14 9.09977H70.7296C70.4133 9.10263 70.0978 9.1319 69.7864 9.18736C69.4218 9.25334 69.08 9.41191 68.7936 9.64801C68.4417 9.95029 68.1722 10.3376 68.0104 10.7735C67.7763 11.4459 67.671 12.1568 67.7 12.8686V19.0066C67.4024 19.0564 67.1048 19.087 66.8064 19.1079C66.508 19.1288 66.2192 19.132 65.9376 19.132C65.656 19.132 65.3704 19.1223 65.0816 19.1079C64.7928 19.0934 64.4896 19.0564 64.1736 19.0066L64.1728 6.08179Z" fill="white"/>
<path d="M74.668 8.77576H73.0536L78.1448 2.31299V6.08179H81.148C81.1923 6.30395 81.2252 6.52828 81.2464 6.75387C81.2624 6.95485 81.272 7.16228 81.272 7.37934C81.272 7.61248 81.2624 7.83678 81.2464 8.05304C81.2304 8.2693 81.1968 8.51045 81.148 8.77655H78.1416V13.8413C78.1306 14.2608 78.1723 14.68 78.2656 15.089C78.3272 15.3625 78.4498 15.6184 78.624 15.8375C78.7778 16.018 78.9817 16.1485 79.2096 16.2121C79.4766 16.2824 79.752 16.3156 80.028 16.311C80.273 16.3117 80.5177 16.291 80.7592 16.2491C80.9992 16.2081 81.2112 16.1687 81.3928 16.1381C81.5097 16.4569 81.5937 16.7869 81.6432 17.1229C81.6884 17.4245 81.7124 17.7288 81.7152 18.0338C81.7152 18.2179 81.7152 18.3706 81.704 18.4968C81.6928 18.623 81.6832 18.738 81.6672 18.8594C80.8941 19.0427 80.1023 19.1347 79.308 19.1335C78.0659 19.2194 76.836 18.8412 75.8544 18.0716C75.4214 17.6145 75.0911 17.0693 74.8857 16.473C74.6804 15.8766 74.6047 15.2429 74.664 14.6147L74.668 8.77576Z" fill="white"/>
<path d="M84.5264 8.77569H82.8616C82.8103 8.54939 82.7732 8.32009 82.7504 8.08913C82.7252 7.86089 82.713 7.63142 82.7136 7.40179C82.7123 6.9573 82.7617 6.51412 82.8608 6.08093H87.9808V18.9808C87.4061 19.0787 86.8244 19.129 86.2416 19.1311C85.6678 19.1283 85.0952 19.078 84.5296 18.9808L84.5264 8.77569Z" fill="white"/>
<path d="M90.5472 8.77577H88.9312L94.0224 2.31299V6.08179H97.0272C97.072 6.30395 97.1054 6.52827 97.1272 6.75388C97.144 6.95486 97.1512 7.16228 97.1512 7.37934C97.1512 7.61248 97.144 7.83679 97.1272 8.05305C97.1104 8.2693 97.0768 8.51045 97.0272 8.77655H94.0232V13.8413C94.0125 14.2607 94.0538 14.6799 94.1464 15.089C94.2079 15.3632 94.3316 15.6194 94.508 15.8375C94.661 16.0178 94.8641 16.1482 95.0912 16.2121C95.3585 16.2824 95.6341 16.3157 95.9104 16.311C96.1554 16.3118 96.4001 16.2911 96.6416 16.2491L97.276 16.1382C97.3933 16.4567 97.4767 16.7868 97.5248 17.1229C97.5709 17.4244 97.5955 17.7288 97.5984 18.0338C97.5984 18.2179 97.5984 18.3706 97.5864 18.4969C97.5744 18.6231 97.5664 18.738 97.5496 18.8594C96.7767 19.0426 95.9852 19.1346 95.1912 19.1336C93.9493 19.2197 92.7195 18.8415 91.7384 18.0716C90.9427 17.3636 90.5458 16.2113 90.548 14.6147L90.5472 8.77577Z" fill="white"/>
<path d="M99.4832 6.08174C100.648 5.88181 101.838 5.88181 103.003 6.08174V12.9152C102.99 13.481 103.044 14.0463 103.163 14.5994C103.244 14.9826 103.414 15.3409 103.66 15.6445C103.881 15.9006 104.169 16.0904 104.49 16.1928C104.869 16.3067 105.262 16.3609 105.657 16.3536C106.176 16.365 106.694 16.3064 107.197 16.1791V6.08174C107.771 5.98324 108.352 5.93295 108.934 5.9314C109.524 5.93233 110.113 5.98263 110.694 6.08174V18.4824C110.008 18.7058 109.307 18.8849 108.598 19.0186C107.702 19.1958 106.791 19.2837 105.878 19.2808C105.062 19.2827 104.248 19.216 103.444 19.0813C102.705 18.9632 102.004 18.673 101.396 18.234C100.764 17.7427 100.279 17.0863 99.9936 16.3367C99.607 15.275 99.4298 14.1478 99.472 13.0181L99.4832 6.08174Z" fill="white"/>
<path d="M121.11 0.747823C121.407 0.698783 121.702 0.66741 121.99 0.648116C122.279 0.628822 122.566 0.624023 122.847 0.624023C123.129 0.624023 123.419 0.633645 123.717 0.648116C124.014 0.662587 124.313 0.698783 124.612 0.747823V18.5654C123.834 18.7979 123.042 18.977 122.24 19.1016C121.273 19.2373 120.298 19.2997 119.322 19.2882C118.469 19.2912 117.62 19.1699 116.802 18.928C116.022 18.6983 115.299 18.3072 114.678 17.78C114.044 17.2243 113.547 16.528 113.226 15.746C112.539 13.9036 112.513 11.8779 113.152 10.018C113.44 9.20933 113.887 8.46723 114.467 7.83609C115.052 7.21137 115.758 6.71419 116.542 6.37537C117.397 6.00931 118.319 5.82668 119.248 5.83915C119.546 5.83915 119.857 5.85175 120.179 5.87694C120.494 5.90116 120.806 5.95495 121.11 6.03768V0.747823ZM121.11 8.75823C120.844 8.68927 120.575 8.63558 120.302 8.59743C120.043 8.56981 119.781 8.55744 119.52 8.56043C119.024 8.5485 118.533 8.66392 118.094 8.89572C117.695 9.11475 117.35 9.42172 117.086 9.79367C116.81 10.1933 116.613 10.6425 116.505 11.117C116.38 11.6355 116.318 12.1672 116.319 12.7007C116.305 13.2885 116.389 13.8744 116.566 14.4348C116.703 14.8612 116.937 15.2499 117.249 15.5708C117.54 15.8535 117.893 16.0632 118.28 16.1826C118.699 16.3091 119.135 16.3717 119.572 16.3683C119.829 16.37 120.085 16.3574 120.341 16.3305C120.602 16.2996 120.86 16.2457 121.111 16.1697L121.11 8.75823Z" fill="white"/>
<path d="M129.826 13.6178C129.822 14.0356 129.914 14.4488 130.094 14.8253C130.274 15.2017 130.539 15.5313 130.866 15.7884C131.605 16.2672 132.473 16.5022 133.351 16.4605C133.93 16.4602 134.507 16.4064 135.076 16.2997C135.647 16.1966 136.208 16.0424 136.752 15.8391C136.953 16.2195 137.112 16.6212 137.225 17.0369C137.36 17.5247 137.435 18.0275 137.446 18.5338C136.048 19.052 134.567 19.3058 133.077 19.2823C132.033 19.307 130.993 19.138 130.01 18.7839C129.218 18.4911 128.505 18.0171 127.926 17.3995C127.379 16.7937 126.972 16.0736 126.734 15.2908C126.216 13.5479 126.22 11.69 126.746 9.94947C126.991 9.15377 127.392 8.4156 127.926 7.77884C128.458 7.15517 129.119 6.65647 129.863 6.31808C130.712 5.94322 131.632 5.75963 132.558 5.78025C133.377 5.76584 134.19 5.92785 134.941 6.25538C135.617 6.55697 136.223 6.99921 136.717 7.55293C137.216 8.12187 137.593 8.78909 137.822 9.51212C138.074 10.2975 138.2 11.1185 138.194 11.944C138.194 12.2599 138.182 12.5727 138.157 12.8798C138.132 13.1869 138.102 13.4345 138.07 13.6178H129.826ZM134.866 11.1449C134.867 10.4447 134.635 9.76434 134.207 9.21143C133.999 8.96615 133.737 8.77235 133.442 8.64494C133.146 8.51754 132.826 8.45995 132.506 8.47664C132.16 8.4524 131.814 8.50223 131.489 8.62281C131.164 8.74339 130.868 8.93197 130.622 9.17606C130.153 9.72785 129.882 10.4212 129.851 11.1457L134.866 11.1449Z" fill="white"/>
<path d="M87.728 1.41167C87.712 1.13145 87.6789 0.852493 87.6288 0.576371C87.3488 0.526527 87.0424 0.488998 86.7096 0.463808C86.4072 0.441298 86.1256 0.428437 85.8632 0.426025H85.8424C85.58 0.426025 85.2984 0.441298 84.9944 0.463808C84.664 0.489534 84.3544 0.526527 84.076 0.576371C84.0268 0.852628 83.9937 1.13153 83.9768 1.41167C83.9608 1.68581 83.9504 1.96561 83.9504 2.24779C83.9504 2.5147 83.9608 2.78882 83.9768 3.0694C83.9931 3.35464 84.0262 3.63865 84.076 3.91995C84.3761 3.97177 84.6791 4.00484 84.9832 4.01887C85.2877 4.03549 85.5741 4.04375 85.8424 4.04375H85.8632C86.132 4.04375 86.4184 4.03576 86.7232 4.01887C87.0266 4.00492 87.3288 3.97186 87.628 3.91995C87.6787 3.63878 87.7118 3.35472 87.7272 3.0694C87.7448 2.78855 87.7536 2.5147 87.7536 2.24779C87.7528 1.96722 87.7456 1.68742 87.728 1.41167Z" fill="white"/>
</svg>
